<?xml version="1.0" encoding="UTF-8"?>
<svg width="65px" height="65px" viewBox="0 0 65 65" version="1.1" xmlns="http://www.w3.org/2000/svg" xmlns:xlink="http://www.w3.org/1999/xlink">
    <!-- Generator: Sketch 63.1 (92452) - https://sketch.com -->
    <title>Icon</title>
    <desc>Created with Sketch.</desc>
    <defs>
        <polygon id="path-1" points="0 0.000284745763 41.4794847 0.000284745763 41.4794847 27.1216068 0 27.1216068"></polygon>
    </defs>
    <g id="Icon" stroke="none" stroke-width="1" fill="none" fill-rule="evenodd">
        <rect id="Rectangle-Copy-13" stroke="#D8D8DA" fill="#FFFFFF" fill-rule="nonzero" x="0.5" y="0.5" width="64" height="64" rx="16"></rect>
        <g id="Group-3" transform="translate(12.000000, 19.000000)">
            <mask id="mask-2" fill="white">
                <use xlink:href="#path-1"></use>
            </mask>
            <g id="Clip-2"></g>
            <path d="M37.3670441,24.3083186 L36.616739,24.3083186 L35.4022983,24.3083186 L34.6527051,24.3083186 L28.2715525,24.3083186 L28.2715525,24.2976407 C31.6550441,21.7591322 33.6639254,17.7513356 33.6639254,13.4936746 C33.6639254,6.05184407 27.6365695,0.000284745763 20.2303322,0.000284745763 C12.8191119,0.000284745763 6.79175593,6.05184407 6.79175593,13.4936746 C6.79175593,17.7513356 8.80063729,21.7648271 12.1791458,24.3026237 L12.1791458,24.3083186 L5.80226441,24.3083186 L5.05267119,24.3083186 L3.84321356,24.3083186 L3.09362034,24.3083186 L-0.000142372881,24.3083186 L-0.000142372881,27.1216068 L14.8529085,27.1216068 L14.8529085,27.046861 L14.8628746,27.046861 L14.907722,23.6633695 C14.9176881,23.1736068 14.6678237,22.7336746 14.2585017,22.4838102 C14.2079593,22.4240136 14.1381966,22.3642169 14.0577559,22.3086915 C11.2046034,20.2898441 9.5004,16.9967593 9.5004,13.4936746 C9.5004,7.55103051 14.3133153,2.71818305 20.2303322,2.71818305 C26.1416542,2.71818305 30.9545695,7.55103051 30.9545695,13.4936746 C30.9545695,17.0764881 29.1912814,20.4151322 26.2370441,22.4190305 C26.1274169,22.4887932 26.0370102,22.5784881 25.9473153,22.6838441 C25.6825017,22.9486576 25.5379932,23.303878 25.5472475,23.6583864 L25.5928068,27.046861 L25.6027729,27.046861 L25.6027729,27.1216068 L41.4794847,27.1216068 L41.4794847,24.3083186 L37.3670441,24.3083186 Z" id="Fill-1" fill="#2681D6" mask="url(#mask-2)"></path>
        </g>
    </g>
</svg>